<svg width="61" height="48" viewBox="0 0 61 48" fill="none" xmlns="http://www.w3.org/2000/svg">
  <path d="M54.7499 3.93225C54.5508 3.95021 54.3518 3.95918 54.1573 3.98612C53.8678 4.031 53.6462 4.1836 53.5105 4.44393C53.42 4.61898 53.3386 4.79851 53.2708 4.98703C53.0898 5.47626 52.9813 5.98794 52.8456 6.48615C52.8275 6.55348 52.8229 6.62978 52.8094 6.6971C52.8049 6.72403 52.8003 6.75545 52.7868 6.7779C52.7551 6.84522 52.6963 6.88113 52.6284 6.87215C52.5606 6.86318 52.5063 6.80931 52.5018 6.73301C52.4973 6.69262 52.4973 6.64773 52.5063 6.60285C52.5335 6.43229 52.5244 6.26622 52.5063 6.10015C52.4701 5.7725 52.4204 5.44484 52.3163 5.13066C52.1852 4.75812 51.9861 4.43047 51.674 4.17463C51.5157 4.04446 51.3529 3.91879 51.1901 3.78863C50.9413 3.59114 50.6563 3.46097 50.3623 3.34427C50.3171 3.32632 50.2628 3.32183 50.2085 3.30388C50.1723 3.2949 50.1316 3.28593 50.0954 3.26797C50.0185 3.23207 49.9869 3.15576 50.005 3.07946C50.0231 3.00765 50.0909 2.96276 50.1723 2.97174C50.2311 2.97623 50.2945 2.98969 50.3533 3.00765C50.688 3.11088 51.0317 3.08844 51.3755 3.05702C51.5022 3.04804 51.6288 3.03458 51.7509 3.00765C52.0359 2.94032 52.2575 2.78323 52.3887 2.51841C52.4928 2.31194 52.5651 2.0965 52.6149 1.86759C52.6963 1.51301 52.8094 1.16292 52.8546 0.799356C52.8772 0.615332 52.9044 0.431308 52.927 0.242795C52.936 0.193423 52.9406 0.14405 52.9541 0.0946781C52.9813 0.0453058 53.022 0.00491028 53.0808 0.000421889C53.1396 -0.0040665 53.1939 0.0273523 53.2119 0.0901898C53.2346 0.157516 53.2527 0.22933 53.2572 0.301144C53.2798 0.633285 53.3024 0.965426 53.325 1.30206C53.3476 1.60727 53.3612 1.91248 53.3929 2.2132C53.42 2.46006 53.506 2.69346 53.6462 2.90441C53.7728 3.09741 53.9492 3.2186 54.1573 3.30388C54.293 3.35774 54.4242 3.41609 54.5599 3.46097C54.6323 3.4879 54.7137 3.49688 54.7906 3.51483C54.9398 3.55074 55.0936 3.58216 55.2429 3.62256C55.3107 3.64051 55.356 3.68988 55.3605 3.7617C55.3695 3.82902 55.3288 3.89635 55.2565 3.92328C55.2067 3.94123 55.1524 3.9547 55.0981 3.9547C54.9805 3.95918 54.8584 3.9547 54.7408 3.9547C54.7499 3.94572 54.7499 3.93674 54.7499 3.93225Z" fill="#F1F1F1"/>
  <path d="M60.6576 25.2002C60.5463 25.2102 60.4349 25.2152 60.3261 25.2303C60.1641 25.2554 60.0401 25.3408 59.9642 25.4865C59.9136 25.5844 59.868 25.6849 59.83 25.7903C59.7288 26.0641 59.6681 26.3504 59.5921 26.6291C59.582 26.6668 59.5795 26.7095 59.5719 26.7472C59.5694 26.7622 59.5668 26.7798 59.5592 26.7924C59.5415 26.83 59.5086 26.8501 59.4707 26.8451C59.4327 26.8401 59.4023 26.8099 59.3998 26.7673C59.3973 26.7447 59.3973 26.7195 59.4023 26.6944C59.4175 26.599 59.4125 26.5061 59.4023 26.4132C59.3821 26.2298 59.3542 26.0465 59.296 25.8707C59.2226 25.6623 59.1113 25.4789 58.9367 25.3358C58.8481 25.263 58.757 25.1926 58.6659 25.1198C58.5267 25.0093 58.3672 24.9365 58.2027 24.8712C58.1774 24.8611 58.147 24.8586 58.1167 24.8486C58.0964 24.8436 58.0736 24.8385 58.0534 24.8285C58.0104 24.8084 57.9927 24.7657 58.0028 24.723C58.0129 24.6828 58.0509 24.6577 58.0964 24.6627C58.1293 24.6653 58.1648 24.6728 58.1977 24.6828C58.3849 24.7406 58.5773 24.728 58.7696 24.7105C58.8405 24.7054 58.9114 24.6979 58.9797 24.6828C59.1391 24.6452 59.2631 24.5573 59.3365 24.4091C59.3947 24.2936 59.4352 24.173 59.4631 24.045C59.5086 23.8466 59.5719 23.6507 59.5972 23.4473C59.6099 23.3443 59.6251 23.2413 59.6377 23.1358C59.6428 23.1082 59.6453 23.0806 59.6529 23.053C59.6681 23.0253 59.6909 23.0027 59.7238 23.0002C59.7567 22.9977 59.787 23.0153 59.7971 23.0505C59.8098 23.0881 59.8199 23.1283 59.8225 23.1685C59.8351 23.3543 59.8478 23.5402 59.8604 23.7285C59.8731 23.8993 59.8807 24.0701 59.8984 24.2383C59.9136 24.3765 59.9617 24.507 60.0401 24.6251C60.111 24.7331 60.2097 24.8009 60.3261 24.8486C60.402 24.8787 60.4754 24.9114 60.5513 24.9365C60.5918 24.9516 60.6374 24.9566 60.6804 24.9666C60.7639 24.9867 60.85 25.0043 60.9335 25.0269C60.9715 25.0369 60.9968 25.0646 60.9993 25.1047C61.0044 25.1424 60.9816 25.1801 60.9411 25.1952C60.9133 25.2052 60.8829 25.2127 60.8525 25.2127C60.7867 25.2152 60.7184 25.2127 60.6526 25.2127C60.6576 25.2077 60.6576 25.2027 60.6576 25.2002Z" fill="#F1F1F1"/>
  <path d="M9.47429 7.87625C9.32871 7.88939 9.18314 7.89595 9.04087 7.91565C8.82912 7.94848 8.66701 8.06011 8.56775 8.25052C8.50158 8.37856 8.44203 8.50988 8.3924 8.64777C8.26006 9.00562 8.18065 9.37989 8.08139 9.74431C8.06816 9.79355 8.06485 9.84936 8.05493 9.89861C8.05162 9.91831 8.04831 9.94129 8.03838 9.9577C8.01522 10.0069 7.97221 10.0332 7.92258 10.0266C7.87296 10.0201 7.83325 9.98069 7.82994 9.92487C7.82664 9.89533 7.82664 9.8625 7.83325 9.82967C7.8531 9.70491 7.84649 9.58344 7.83325 9.46196C7.80679 9.2223 7.77039 8.98264 7.69429 8.75283C7.59835 8.48033 7.45277 8.24067 7.22448 8.05354C7.10868 7.95833 6.98958 7.86641 6.87047 7.7712C6.6885 7.62674 6.48006 7.53154 6.265 7.44618C6.23192 7.43304 6.19222 7.42976 6.15251 7.41663C6.12605 7.41006 6.09627 7.4035 6.0698 7.39036C6.01356 7.3641 5.9904 7.30829 6.00363 7.25248C6.01686 7.19995 6.06649 7.16712 6.12605 7.17368C6.16906 7.17697 6.21538 7.18682 6.25839 7.19995C6.50322 7.27546 6.75467 7.25904 7.00612 7.23606C7.09876 7.2295 7.1914 7.21965 7.28073 7.19995C7.48917 7.1507 7.65128 7.0358 7.74723 6.8421C7.82333 6.69108 7.87626 6.53349 7.91266 6.36605C7.97221 6.10669 8.05493 5.85062 8.08801 5.58469C8.10455 5.45009 8.1244 5.31548 8.14095 5.17759C8.14756 5.14148 8.15087 5.10537 8.1608 5.06925C8.18065 5.03314 8.21043 5.00359 8.25344 5.00031C8.29645 4.99703 8.33615 5.02001 8.34939 5.06597C8.36593 5.11522 8.37916 5.16774 8.38247 5.22027C8.39901 5.46322 8.41556 5.70616 8.4321 5.95239C8.44864 6.17564 8.45857 6.39889 8.48173 6.61885C8.50158 6.79942 8.56444 6.97013 8.66701 7.12444C8.75965 7.26561 8.88868 7.35425 9.04087 7.41663C9.14013 7.45603 9.23608 7.4987 9.33533 7.53154C9.38827 7.55123 9.44782 7.5578 9.50407 7.57093C9.61325 7.5972 9.72574 7.62018 9.83492 7.64972C9.88455 7.66286 9.91764 7.69897 9.92094 7.7515C9.92756 7.80074 9.89778 7.84999 9.84485 7.86969C9.80845 7.88282 9.76875 7.89267 9.72905 7.89267C9.64303 7.89595 9.5537 7.89267 9.46767 7.89267C9.47429 7.8861 9.47429 7.87954 9.47429 7.87625Z" fill="#F1F1F1"/>
  <path d="M2.09222 17.7321C2.00455 17.74 1.91688 17.7439 1.83121 17.7558C1.7037 17.7756 1.60607 17.8428 1.5463 17.9575C1.50645 18.0346 1.47059 18.1136 1.4407 18.1967C1.361 18.4122 1.31319 18.6376 1.25341 18.857C1.24544 18.8867 1.24345 18.9203 1.23747 18.9499C1.23548 18.9618 1.23349 18.9756 1.22751 18.9855C1.21357 19.0152 1.18766 19.031 1.15778 19.027C1.12789 19.0231 1.10398 18.9994 1.10199 18.9658C1.1 18.948 1.1 18.9282 1.10398 18.9084C1.11594 18.8333 1.11195 18.7601 1.10398 18.687C1.08804 18.5427 1.06613 18.3983 1.0203 18.26C0.962523 18.0959 0.874858 17.9515 0.737382 17.8388C0.667648 17.7815 0.595921 17.7261 0.524195 17.6688C0.414613 17.5818 0.289092 17.5245 0.159585 17.4731C0.139661 17.4652 0.115753 17.4632 0.0918437 17.4553C0.0759045 17.4513 0.0579729 17.4474 0.0420337 17.4395C0.00816286 17.4237 -0.00578395 17.39 0.00218566 17.3564C0.0101553 17.3248 0.0400413 17.305 0.0759045 17.309C0.101806 17.311 0.129699 17.3169 0.155601 17.3248C0.303038 17.3703 0.454461 17.3604 0.605883 17.3466C0.661671 17.3426 0.717458 17.3367 0.771253 17.3248C0.896774 17.2952 0.994402 17.226 1.05218 17.1093C1.09801 17.0184 1.12989 16.9235 1.1518 16.8226C1.18766 16.6665 1.23747 16.5122 1.2574 16.3521C1.26736 16.271 1.27932 16.19 1.28928 16.1069C1.29326 16.0852 1.29525 16.0635 1.30123 16.0417C1.31319 16.02 1.33112 16.0022 1.35702 16.0002C1.38292 15.9982 1.40683 16.012 1.4148 16.0397C1.42476 16.0694 1.43273 16.101 1.43472 16.1326C1.44468 16.2789 1.45465 16.4253 1.46461 16.5735C1.47457 16.708 1.48055 16.8424 1.49449 16.9749C1.50645 17.0836 1.5443 17.1864 1.60607 17.2793C1.66186 17.3643 1.73956 17.4177 1.83121 17.4553C1.89098 17.479 1.94876 17.5047 2.00853 17.5245C2.04041 17.5364 2.07628 17.5403 2.11015 17.5482C2.1759 17.564 2.24364 17.5779 2.30939 17.5957C2.33927 17.6036 2.3592 17.6253 2.36119 17.657C2.36517 17.6866 2.34724 17.7163 2.31536 17.7281C2.29345 17.736 2.26954 17.742 2.24563 17.742C2.19383 17.7439 2.14003 17.742 2.08823 17.742C2.09222 17.738 2.09222 17.7341 2.09222 17.7321Z" fill="#F1F1F1"/>
  <path d="M27.0922 1.73208C27.0045 1.73999 26.9169 1.74394 26.8312 1.7558C26.7037 1.77557 26.6061 1.84279 26.5463 1.95746C26.5064 2.03457 26.4706 2.11365 26.4407 2.19668C26.361 2.41218 26.3132 2.63757 26.2534 2.85702C26.2454 2.88667 26.2435 2.92028 26.2375 2.94994C26.2355 2.9618 26.2335 2.97564 26.2275 2.98553C26.2136 3.01518 26.1877 3.031 26.1578 3.02704C26.1279 3.02309 26.104 2.99937 26.102 2.96576C26.1 2.94796 26.1 2.92819 26.104 2.90842C26.1159 2.83329 26.112 2.76014 26.104 2.68699C26.088 2.54267 26.0661 2.39834 26.0203 2.25995C25.9625 2.09586 25.8749 1.95153 25.7374 1.83884C25.6676 1.7815 25.5959 1.72615 25.5242 1.66881C25.4146 1.58182 25.2891 1.52449 25.1596 1.47309C25.1397 1.46518 25.1158 1.4632 25.0918 1.45529C25.0759 1.45134 25.058 1.44738 25.042 1.43948C25.0082 1.42366 24.9942 1.39005 25.0022 1.35644C25.0102 1.32481 25.04 1.30504 25.0759 1.30899C25.1018 1.31097 25.1297 1.3169 25.1556 1.32481C25.303 1.37028 25.4545 1.36039 25.6059 1.34655C25.6617 1.3426 25.7175 1.33667 25.7713 1.32481C25.8968 1.29515 25.9944 1.22595 26.0522 1.10931C26.098 1.01836 26.1299 0.923467 26.1518 0.822637C26.1877 0.666451 26.2375 0.512241 26.2574 0.3521C26.2674 0.271041 26.2793 0.189982 26.2893 0.106946C26.2933 0.0851988 26.2953 0.0634513 26.3012 0.0417038C26.3132 0.0199563 26.3311 0.00216288 26.357 0.000185834C26.3829 -0.00179121 26.4068 0.0120481 26.4148 0.0397268C26.4248 0.0693825 26.4327 0.101015 26.4347 0.132648C26.4447 0.278949 26.4546 0.425251 26.4646 0.573529C26.4746 0.707969 26.4805 0.842408 26.4945 0.97487C26.5064 1.08361 26.5443 1.18641 26.6061 1.27934C26.6619 1.36435 26.7396 1.41773 26.8312 1.45529C26.891 1.47902 26.9488 1.50472 27.0085 1.52449C27.0404 1.53635 27.0763 1.54031 27.1101 1.54821C27.1759 1.56403 27.2436 1.57787 27.3094 1.59566C27.3393 1.60357 27.3592 1.62532 27.3612 1.65695C27.3652 1.68661 27.3472 1.71626 27.3154 1.72812C27.2934 1.73603 27.2695 1.74196 27.2456 1.74196C27.1938 1.74394 27.14 1.74196 27.0882 1.74196C27.0922 1.73801 27.0922 1.73406 27.0922 1.73208Z" fill="#F1F1F1"/>
  <path d="M6.77176 42.9305C6.69752 42.9372 6.62328 42.9406 6.55073 42.9506C6.44275 42.9673 6.36007 43.0243 6.30946 43.1214C6.27571 43.1867 6.24534 43.2536 6.22003 43.324C6.15254 43.5064 6.11205 43.6973 6.06143 43.8831C6.05468 43.9083 6.053 43.9367 6.04794 43.9618C6.04625 43.9719 6.04456 43.9836 6.0395 43.992C6.02769 44.0171 6.00575 44.0305 5.98045 44.0271C5.95514 44.0238 5.93489 44.0037 5.9332 43.9752C5.93152 43.9602 5.93152 43.9434 5.93489 43.9267C5.94501 43.8631 5.94164 43.8011 5.93489 43.7392C5.92139 43.6169 5.90283 43.4947 5.86403 43.3775C5.8151 43.2386 5.74086 43.1164 5.62444 43.0209C5.56539 42.9724 5.50465 42.9255 5.44391 42.8769C5.35111 42.8033 5.24481 42.7547 5.13514 42.7112C5.11827 42.7045 5.09802 42.7028 5.07778 42.6961C5.06428 42.6928 5.04909 42.6894 5.0356 42.6827C5.00691 42.6693 4.9951 42.6409 5.00185 42.6124C5.0086 42.5856 5.03391 42.5689 5.06428 42.5722C5.08621 42.5739 5.10983 42.5789 5.13177 42.5856C5.25662 42.6241 5.38485 42.6158 5.51308 42.604C5.56032 42.6007 5.60757 42.5957 5.65312 42.5856C5.75942 42.5605 5.84209 42.5019 5.89102 42.4031C5.92983 42.3261 5.95682 42.2458 5.97538 42.1604C6.00575 42.0281 6.04794 41.8975 6.06481 41.7619C6.07324 41.6933 6.08337 41.6246 6.0918 41.5543C6.09518 41.5359 6.09687 41.5175 6.10193 41.499C6.11205 41.4806 6.12724 41.4656 6.14917 41.4639C6.1711 41.4622 6.19135 41.4739 6.1981 41.4974C6.20654 41.5225 6.21328 41.5493 6.21497 41.5761C6.22341 41.7 6.23184 41.8238 6.24028 41.9494C6.24872 42.0633 6.25378 42.1771 6.26559 42.2893C6.27571 42.3814 6.30777 42.4684 6.36007 42.5471C6.40732 42.6191 6.47312 42.6643 6.55073 42.6961C6.60135 42.7162 6.65028 42.738 6.70089 42.7547C6.72789 42.7648 6.75826 42.7681 6.78694 42.7748C6.84262 42.7882 6.89999 42.7999 6.95567 42.815C6.98098 42.8217 6.99785 42.8401 6.99953 42.8669C7.00291 42.892 6.98772 42.9171 6.96073 42.9272C6.94217 42.9339 6.92192 42.9389 6.90168 42.9389C6.85781 42.9406 6.81225 42.9389 6.76838 42.9389C6.77176 42.9355 6.77176 42.9322 6.77176 42.9305Z" fill="#F1F1F1"/>
  <path d="M19.7718 32.4668C19.6975 32.4735 19.6233 32.4768 19.5507 32.4869C19.4427 32.5036 19.3601 32.5605 19.3095 32.6576C19.2757 32.7229 19.2453 32.7899 19.22 32.8602C19.1525 33.0427 19.1121 33.2336 19.0614 33.4194C19.0547 33.4445 19.053 33.473 19.0479 33.4981C19.0462 33.5082 19.0446 33.5199 19.0395 33.5282C19.0277 33.5534 19.0058 33.5668 18.9804 33.5634C18.9551 33.5601 18.9349 33.54 18.9332 33.5115C18.9315 33.4964 18.9315 33.4797 18.9349 33.4629C18.945 33.3993 18.9416 33.3374 18.9349 33.2754C18.9214 33.1532 18.9028 33.031 18.864 32.9138C18.8151 32.7748 18.7409 32.6526 18.6244 32.5572C18.5654 32.5086 18.5046 32.4618 18.4439 32.4132C18.3511 32.3395 18.2448 32.291 18.1351 32.2475C18.1183 32.2408 18.098 32.2391 18.0778 32.2324C18.0643 32.229 18.0491 32.2257 18.0356 32.219C18.0069 32.2056 17.9951 32.1771 18.0019 32.1487C18.0086 32.1219 18.0339 32.1051 18.0643 32.1085C18.0862 32.1102 18.1098 32.1152 18.1318 32.1219C18.2566 32.1604 18.3849 32.152 18.5131 32.1403C18.5603 32.137 18.6076 32.1319 18.6531 32.1219C18.7594 32.0968 18.8421 32.0382 18.891 31.9394C18.9298 31.8624 18.9568 31.782 18.9754 31.6966C19.0058 31.5644 19.0479 31.4338 19.0648 31.2982C19.0732 31.2295 19.0834 31.1609 19.0918 31.0906C19.0952 31.0721 19.0969 31.0537 19.1019 31.0353C19.1121 31.0169 19.1272 31.0018 19.1492 31.0002C19.1711 30.9985 19.1914 31.0102 19.1981 31.0336C19.2065 31.0588 19.2133 31.0855 19.215 31.1123C19.2234 31.2362 19.2318 31.3601 19.2403 31.4857C19.2487 31.5995 19.2538 31.7134 19.2656 31.8256C19.2757 31.9176 19.3078 32.0047 19.3601 32.0834C19.4073 32.1554 19.4731 32.2006 19.5507 32.2324C19.6013 32.2525 19.6503 32.2742 19.7009 32.291C19.7279 32.301 19.7583 32.3044 19.7869 32.3111C19.8426 32.3245 19.9 32.3362 19.9557 32.3513C19.981 32.358 19.9978 32.3764 19.9995 32.4032C20.0029 32.4283 19.9877 32.4534 19.9607 32.4634C19.9422 32.4701 19.9219 32.4752 19.9017 32.4752C19.8578 32.4768 19.8123 32.4752 19.7684 32.4752C19.7718 32.4718 19.7718 32.4685 19.7718 32.4668Z" fill="#F1F1F1"/>
  <path d="M40.7718 46.7163C40.6975 46.7241 40.6233 46.728 40.5507 46.7398C40.4427 46.7594 40.3601 46.826 40.3095 46.9396C40.2757 47.016 40.2453 47.0944 40.22 47.1766C40.1525 47.3902 40.1121 47.6135 40.0614 47.8309C40.0547 47.8603 40.053 47.8936 40.0479 47.923C40.0462 47.9348 40.0446 47.9485 40.0395 47.9583C40.0277 47.9877 40.0058 48.0033 39.9804 47.9994C39.9551 47.9955 39.9349 47.972 39.9332 47.9387C39.9315 47.921 39.9315 47.9015 39.9349 47.8819C39.945 47.8074 39.9416 47.7349 39.9349 47.6625C39.9214 47.5195 39.9028 47.3764 39.864 47.2393C39.8151 47.0767 39.7409 46.9337 39.6244 46.822C39.5654 46.7652 39.5046 46.7104 39.4439 46.6536C39.3511 46.5674 39.2448 46.5106 39.1351 46.4596C39.1183 46.4518 39.098 46.4498 39.0778 46.442C39.0643 46.4381 39.0491 46.4342 39.0356 46.4263C39.0069 46.4107 38.9951 46.3774 39.0019 46.3441C39.0086 46.3127 39.0339 46.2931 39.0643 46.297C39.0862 46.299 39.1098 46.3049 39.1318 46.3127C39.2566 46.3578 39.3849 46.348 39.5131 46.3343C39.5603 46.3303 39.6076 46.3245 39.6531 46.3127C39.7594 46.2833 39.8421 46.2148 39.891 46.0992C39.9298 46.0091 39.9568 45.915 39.9754 45.8151C40.0058 45.6604 40.0479 45.5076 40.0648 45.3489C40.0732 45.2686 40.0834 45.1882 40.0918 45.106C40.0952 45.0844 40.0969 45.0629 40.1019 45.0413C40.1121 45.0198 40.1272 45.0021 40.1492 45.0002C40.1711 44.9982 40.1914 45.0119 40.1981 45.0394C40.2065 45.0687 40.2133 45.1001 40.215 45.1314C40.2234 45.2764 40.2318 45.4214 40.2403 45.5683C40.2487 45.7015 40.2538 45.8347 40.2656 45.966C40.2757 46.0737 40.3078 46.1756 40.3601 46.2677C40.4073 46.3519 40.4731 46.4048 40.5507 46.442C40.6013 46.4655 40.6503 46.491 40.7009 46.5106C40.7279 46.5223 40.7583 46.5262 40.7869 46.5341C40.8426 46.5497 40.9 46.5635 40.9557 46.5811C40.981 46.5889 40.9978 46.6105 40.9995 46.6418C41.0029 46.6712 40.9877 46.7006 40.9607 46.7123C40.9422 46.7202 40.9219 46.7261 40.9017 46.7261C40.8578 46.728 40.8123 46.7261 40.7684 46.7261C40.7718 46.7221 40.7718 46.7182 40.7718 46.7163Z" fill="#F1F1F1"/>
  <path d="M34.6576 20.2002C34.5463 20.2102 34.4349 20.2152 34.3261 20.2303C34.1641 20.2554 34.0401 20.3408 33.9642 20.4865C33.9136 20.5844 33.868 20.6849 33.83 20.7903C33.7288 21.0641 33.6681 21.3504 33.5921 21.6291C33.582 21.6668 33.5795 21.7095 33.5719 21.7472C33.5694 21.7622 33.5668 21.7798 33.5592 21.7924C33.5415 21.83 33.5086 21.8501 33.4707 21.8451C33.4327 21.8401 33.4023 21.8099 33.3998 21.7673C33.3973 21.7447 33.3973 21.7195 33.4023 21.6944C33.4175 21.599 33.4125 21.5061 33.4023 21.4132C33.3821 21.2298 33.3542 21.0465 33.296 20.8707C33.2226 20.6623 33.1113 20.4789 32.9367 20.3358C32.8481 20.263 32.757 20.1926 32.6659 20.1198C32.5267 20.0093 32.3672 19.9365 32.2027 19.8712C32.1774 19.8611 32.147 19.8586 32.1167 19.8486C32.0964 19.8436 32.0736 19.8385 32.0534 19.8285C32.0104 19.8084 31.9927 19.7657 32.0028 19.723C32.0129 19.6828 32.0509 19.6577 32.0964 19.6627C32.1293 19.6653 32.1648 19.6728 32.1977 19.6828C32.3849 19.7406 32.5773 19.728 32.7696 19.7105C32.8405 19.7054 32.9114 19.6979 32.9797 19.6828C33.1391 19.6452 33.2631 19.5573 33.3365 19.4091C33.3947 19.2936 33.4352 19.173 33.4631 19.045C33.5086 18.8466 33.5719 18.6507 33.5972 18.4473C33.6099 18.3443 33.6251 18.2413 33.6377 18.1358C33.6428 18.1082 33.6453 18.0806 33.6529 18.053C33.6681 18.0253 33.6909 18.0027 33.7238 18.0002C33.7567 17.9977 33.787 18.0153 33.7971 18.0505C33.8098 18.0881 33.8199 18.1283 33.8225 18.1685C33.8351 18.3543 33.8478 18.5402 33.8604 18.7285C33.8731 18.8993 33.8807 19.0701 33.8984 19.2383C33.9136 19.3765 33.9617 19.507 34.0401 19.6251C34.111 19.7331 34.2097 19.8009 34.3261 19.8486C34.402 19.8787 34.4754 19.9114 34.5513 19.9365C34.5918 19.9516 34.6374 19.9566 34.6804 19.9666C34.7639 19.9867 34.85 20.0043 34.9335 20.0269C34.9715 20.0369 34.9968 20.0646 34.9993 20.1047C35.0044 20.1424 34.9816 20.1801 34.9411 20.1952C34.9133 20.2052 34.8829 20.2127 34.8525 20.2127C34.7867 20.2152 34.7184 20.2127 34.6526 20.2127C34.6576 20.2077 34.6576 20.2027 34.6576 20.2002Z" fill="#F1F1F1"/>
</svg>
